<?xml version="1.0" encoding="utf-8"?>
<!-- Generator: Adobe Illustrator 16.0.0, SVG Export Plug-In . SVG Version: 6.00 Build 0)  -->
<!DOCTYPE svg PUBLIC "-//W3C//DTD SVG 1.1//EN" "http://www.w3.org/Graphics/SVG/1.1/DTD/svg11.dtd">
<svg version="1.1" id="Layer_1" xmlns="http://www.w3.org/2000/svg" xmlns:xlink="http://www.w3.org/1999/xlink" x="0px" y="0px"
	 width="175.346px" height="80px" viewBox="0 0 175.346 80" enable-background="new 0 0 175.346 80" xml:space="preserve">
<g>
	<path fill="#332524" d="M80.228,79.299v-7.453h1.342v6.186h3.585v1.268H80.228z"/>
	<path fill="#332524" d="M86.361,76.145v-4.299h1.342v4.414c0,0.654,0.142,1.135,0.427,1.439c0.282,0.307,0.733,0.459,1.353,0.459
		c0.618,0,1.07-0.152,1.355-0.459c0.285-0.305,0.429-0.785,0.429-1.439v-4.414h1.342v4.299c0,1.029-0.273,1.828-0.821,2.393
		c-0.547,0.566-1.316,0.85-2.308,0.85c-0.992,0-1.759-0.283-2.303-0.85C86.632,77.973,86.361,77.174,86.361,76.145z"/>
	<path fill="#332524" d="M93.771,79.299l2.646-3.766l-2.581-3.688h1.631l1.779,2.516l1.763-2.516h1.576l-2.559,3.633l2.68,3.82
		h-1.632l-1.877-2.658l-1.878,2.658H93.771z"/>
	<path fill="#332524" d="M101.858,76.145v-4.299h1.343v4.414c0,0.654,0.142,1.135,0.425,1.439c0.284,0.307,0.735,0.459,1.354,0.459
		s1.07-0.152,1.356-0.459c0.285-0.305,0.428-0.785,0.428-1.439v-4.414h1.342v4.299c0,1.029-0.273,1.828-0.82,2.393
		c-0.548,0.566-1.317,0.85-2.309,0.85s-1.759-0.283-2.303-0.85C102.129,77.973,101.858,77.174,101.858,76.145z"/>
	<path fill="#332524" d="M109.966,79.299v-7.453h2.862c0.873,0,1.553,0.207,2.037,0.621s0.727,1.006,0.727,1.775
		c0,1.137-0.546,1.871-1.638,2.203l1.959,2.854h-1.62l-1.779-2.631h-1.205v2.631H109.966z M111.309,75.441h1.483
		c0.455,0,0.812-0.082,1.069-0.244c0.259-0.162,0.388-0.471,0.388-0.922c0-0.459-0.129-0.768-0.388-0.926
		c-0.258-0.16-0.614-0.24-1.069-0.24h-1.483V75.441z"/>
	<path fill="#332524" d="M116.279,71.846h1.622l1.975,3.027l1.964-3.027h1.621l-2.913,4.256v3.197h-1.343v-3.197L116.279,71.846z"/>
	<path fill="#332524" d="M128.066,73.939c0-0.721,0.253-1.266,0.759-1.631c0.505-0.367,1.139-0.551,1.898-0.551
		c0.67,0,1.337,0.174,2.003,0.52v1.314c-0.575-0.379-1.189-0.568-1.844-0.568c-0.412,0-0.76,0.07-1.046,0.213
		c-0.285,0.143-0.428,0.365-0.428,0.67c0,0.25,0.13,0.443,0.39,0.582c0.261,0.141,0.575,0.258,0.944,0.355
		c0.369,0.096,0.74,0.217,1.113,0.361c0.373,0.146,0.688,0.398,0.949,0.756c0.26,0.359,0.391,0.822,0.391,1.389
		c0,0.6-0.25,1.088-0.748,1.467c-0.499,0.381-1.105,0.57-1.822,0.57c-0.946,0-1.767-0.209-2.462-0.625v-1.357
		c0.641,0.477,1.357,0.715,2.15,0.715c1.026,0,1.539-0.285,1.539-0.855c0-0.258-0.093-0.473-0.278-0.645
		c-0.186-0.17-0.42-0.297-0.704-0.379s-0.588-0.178-0.911-0.289c-0.324-0.111-0.627-0.232-0.911-0.363s-0.519-0.336-0.705-0.613
		C128.159,74.695,128.066,74.352,128.066,73.939z"/>
	<path fill="#332524" d="M133.959,79.299l2.963-7.453h1.474l2.962,7.453h-1.439l-0.683-1.801h-3.154l-0.682,1.801H133.959z
		 M136.541,76.291h2.227l-1.108-2.924L136.541,76.291z"/>
	<path fill="#332524" d="M142.482,79.299v-7.453h4.818v1.205h-3.476v1.889h3.007v1.266h-3.007v3.094H142.482z"/>
	<path fill="#332524" d="M147.42,79.299l2.963-7.453h1.474l2.963,7.453h-1.44l-0.682-1.801h-3.154l-0.682,1.801H147.42z
		 M150.001,76.291h2.227l-1.107-2.924L150.001,76.291z"/>
	<path fill="#332524" d="M155.966,79.299v-7.453h2.861c0.874,0,1.553,0.207,2.037,0.621s0.727,1.006,0.727,1.775
		c0,1.137-0.545,1.871-1.637,2.203l1.959,2.854h-1.62l-1.779-2.631h-1.206v2.631H155.966z M157.308,75.441h1.484
		c0.454,0,0.811-0.082,1.069-0.244c0.258-0.162,0.388-0.471,0.388-0.922c0-0.459-0.13-0.768-0.388-0.926
		c-0.259-0.16-0.615-0.24-1.069-0.24h-1.484V75.441z"/>
	<path fill="#332524" d="M163.409,79.299v-7.453h1.343v7.453H163.409z"/>
	<path fill="#332524" d="M166.35,73.939c0-0.721,0.253-1.266,0.758-1.631c0.506-0.367,1.139-0.551,1.898-0.551
		c0.67,0,1.338,0.174,2.004,0.52v1.314c-0.574-0.379-1.189-0.568-1.845-0.568c-0.411,0-0.759,0.07-1.045,0.213
		s-0.428,0.365-0.428,0.67c0,0.25,0.13,0.443,0.39,0.582c0.26,0.141,0.574,0.258,0.944,0.355c0.369,0.096,0.74,0.217,1.112,0.361
		c0.373,0.146,0.689,0.398,0.95,0.756c0.26,0.359,0.39,0.822,0.39,1.389c0,0.6-0.249,1.088-0.747,1.467
		c-0.499,0.381-1.106,0.57-1.823,0.57c-0.945,0-1.766-0.209-2.46-0.625v-1.357c0.64,0.477,1.356,0.715,2.149,0.715
		c1.025,0,1.539-0.285,1.539-0.855c0-0.258-0.093-0.473-0.278-0.645c-0.186-0.17-0.421-0.297-0.705-0.379
		c-0.283-0.082-0.587-0.178-0.91-0.289c-0.324-0.111-0.628-0.232-0.911-0.363c-0.284-0.131-0.519-0.336-0.704-0.613
		C166.442,74.695,166.35,74.352,166.35,73.939z"/>
</g>
<path fill="#DCA959" d="M7.345,54.24c0,0.834,0.03,0.893,0.833,0.893h2.052c1.546,0,1.903-0.207,2.201-1.637l0.148-0.742
	c0.208-0.238,0.952-0.238,1.101,0.029c-0.06,0.951-0.089,2.023-0.089,3.152c0,1.131,0.03,2.201,0.089,3.152
	c-0.149,0.268-0.892,0.297-1.101,0.029l-0.148-0.742c-0.297-1.428-0.654-1.666-2.201-1.666H8.178c-0.803,0-0.833,0.029-0.833,0.922
	v3.539c0,1.367,0.119,2.32,0.476,2.824c0.387,0.537,0.952,0.773,3.122,0.773c2.587,0,3.599-0.088,5.234-3.449
	c0.238-0.326,0.982-0.207,1.101,0.148c-0.119,1.547-0.833,3.955-1.249,4.758c-1.577-0.059-4.431-0.088-6.87-0.088H5.293
	c-1.427,0-2.884,0.029-5.114,0.088c-0.238-0.178-0.238-0.893,0-1.041l1.397-0.207c1.338-0.209,1.517-0.387,1.517-3.123V50.762
	c0-2.707-0.178-2.885-1.517-3.152l-0.744-0.148c-0.268-0.18-0.238-0.863,0.06-1.041c1.398,0.059,2.855,0.088,4.282,0.088h6.305
	c1.903,0,3.599-0.029,3.985-0.088c0.03,0.475,0.238,2.617,0.387,4.609c-0.119,0.326-0.803,0.387-1.1,0.119
	c-0.328-1.041-0.744-1.934-1.13-2.35c-0.565-0.564-1.458-0.922-2.915-0.922H8.327c-0.981,0-0.981,0.059-0.981,1.16V54.24z"/>
<path fill="#DCA959" d="M38.896,61.08c0,1.934,0,3.807,0.06,4.787c-0.208,0.357-1.041,0.686-1.754,0.686
	c-0.03,0-1.011-1.518-2.409-3.24l-6.869-8.506c-1.725-2.111-2.706-3.361-3.242-3.807c-0.149,0.297-0.149,0.803-0.149,1.902v5.77
	c0,2.408,0.119,4.641,0.446,5.441c0.268,0.625,0.952,0.834,1.725,0.951l0.833,0.119c0.238,0.238,0.179,0.863,0,1.041
	c-1.606-0.059-2.795-0.088-3.985-0.088c-1.101,0-2.201,0.029-3.331,0.088c-0.178-0.178-0.238-0.803,0-1.041l0.505-0.088
	c0.803-0.148,1.398-0.357,1.636-0.982c0.327-0.801,0.416-3.033,0.416-5.441v-7.553c0-1.637-0.03-2.113-0.208-2.529
	c-0.238-0.506-0.654-0.861-1.695-1.012l-0.833-0.117c-0.208-0.238-0.178-0.953,0.119-1.041c1.398,0.059,2.885,0.088,4.104,0.088
	c1.011,0,1.873-0.029,2.498-0.088c0.297,1.338,2.23,3.598,4.907,6.779l2.498,2.945c1.309,1.547,2.171,2.586,2.855,3.27
	c0.119-0.297,0.119-0.801,0.119-1.336v-4.105c0-2.408-0.119-4.639-0.446-5.441c-0.268-0.625-0.922-0.832-1.725-0.953l-0.803-0.117
	c-0.238-0.238-0.178-0.863,0-1.041c1.606,0.059,2.766,0.088,3.985,0.088c1.101,0,2.171-0.029,3.331-0.088
	c0.179,0.178,0.238,0.803,0,1.041l-0.535,0.088c-0.773,0.121-1.338,0.357-1.605,0.982c-0.328,0.803-0.446,3.033-0.446,5.441V61.08z"
	/>
<path fill="#DCA959" d="M63.637,62.775c0,1.25,0.06,1.844,0.625,1.963c0.119,0.119,0.089,0.625-0.089,0.715
	c-0.505,0.088-1.279,0.178-2.082,0.445c-1.041,0.326-3.598,0.713-5.264,0.713c-2.022,0-3.747-0.207-5.858-1.041
	c-3.479-1.396-5.859-4.697-5.859-8.98c0-3.717,1.666-6.988,5.234-8.98c2.022-1.102,4.431-1.576,6.958-1.576
	c3.301,0,4.937,0.715,5.889,0.715c0.089,0.891,0.119,2.973,0.416,4.787c-0.119,0.326-0.922,0.355-1.13,0.059
	c-0.951-2.795-2.825-4.193-5.59-4.193c-4.729,0-7.019,3.926-7.019,8.625c0,4.252,1.457,6.781,3.39,8.088
	c1.428,0.951,2.974,1.131,4.075,1.131c1.695,0,2.052-0.326,2.052-2.26v-1.873c0-1.605-0.178-1.785-1.606-1.994l-1.308-0.178
	c-0.328-0.178-0.328-0.861,0-1.041c2.111,0.061,3.569,0.09,5.025,0.09c1.428,0,2.884-0.029,3.896-0.09
	c0.238,0.18,0.238,0.863,0,1.041l-0.684,0.119c-0.892,0.148-1.07,0.447-1.07,2.053V62.775z"/>
<path fill="#DCA959" d="M94.147,48.738c0-0.713,0-0.861-0.714-0.861h-1.844c-2.171,0-2.795,1.189-3.687,3.361
	c-0.358,0.178-0.923,0.117-1.102-0.268c0.625-2.053,0.773-3.896,0.981-5.057c0.12-0.088,0.268-0.148,0.417-0.148
	c0.148,0,0.297,0.029,0.416,0.119c0.148,0.504,0.237,0.623,2.498,0.623h11.063c1.963,0,2.408-0.029,2.677-0.652
	c0.119-0.061,0.208-0.09,0.387-0.09s0.386,0.119,0.445,0.207c-0.297,1.012-0.505,3.422-0.445,5.115
	c-0.149,0.268-0.952,0.328-1.101,0.09c-0.506-1.902-0.922-3.301-3.152-3.301h-1.784c-0.714,0-0.803,0.09-0.803,0.861v13.115
	c0,2.766,0.178,3.004,1.516,3.182l1.19,0.148c0.208,0.18,0.208,0.863,0,1.041c-1.934-0.059-3.42-0.088-4.758-0.088
	c-1.428,0-2.974,0.029-5.056,0.088c-0.238-0.178-0.238-0.861,0-1.041l1.338-0.148c1.338-0.148,1.517-0.416,1.517-3.182V48.738z"/>
<path fill="#DCA959" d="M111.156,50.791c0-2.766-0.179-2.943-1.517-3.213l-0.743-0.146c-0.238-0.18-0.268-0.834,0.06-1.012
	c1.428,0.059,2.914,0.088,4.341,0.088c1.458,0,2.915-0.029,4.343-0.088c0.237,0.178,0.237,0.832,0,1.012l-0.714,0.117
	c-1.338,0.238-1.517,0.477-1.517,3.242v6.869c0,3.48,0.387,7.316,4.907,7.316c3.806,0,4.966-3.33,4.966-7.404v-3.6
	c0-2.408-0.119-4.668-0.446-5.441c-0.268-0.625-0.922-0.803-1.725-0.953l-0.803-0.146c-0.238-0.238-0.179-0.834,0-1.012
	c1.605,0.059,2.766,0.088,3.984,0.088c1.101,0,2.201-0.029,3.331-0.088c0.179,0.178,0.238,0.773,0,1.012l-0.535,0.117
	c-0.773,0.18-1.339,0.357-1.606,0.982c-0.326,0.773-0.446,3.033-0.446,5.441v3.33c0,2.797-0.268,5.354-1.903,7.168
	c-1.308,1.396-3.479,2.141-5.888,2.141c-2.26,0-4.282-0.357-5.888-1.664c-1.546-1.279-2.201-3.48-2.201-6.723V50.791z"/>
<path fill="#DCA959" d="M151.48,61.08c0,1.934,0,3.807,0.06,4.787c-0.208,0.357-1.041,0.686-1.755,0.686
	c-0.029,0-1.011-1.518-2.409-3.24l-6.869-8.506c-1.725-2.111-2.706-3.361-3.241-3.807c-0.149,0.297-0.149,0.803-0.149,1.902v5.77
	c0,2.408,0.119,4.641,0.447,5.441c0.267,0.625,0.951,0.834,1.725,0.951l0.833,0.119c0.237,0.238,0.178,0.863,0,1.041
	c-1.606-0.059-2.796-0.088-3.985-0.088c-1.1,0-2.201,0.029-3.331,0.088c-0.178-0.178-0.238-0.803,0-1.041l0.505-0.088
	c0.804-0.148,1.398-0.357,1.637-0.982c0.327-0.801,0.416-3.033,0.416-5.441v-7.553c0-1.637-0.029-2.113-0.208-2.529
	c-0.237-0.506-0.655-0.861-1.695-1.012l-0.832-0.117c-0.208-0.238-0.179-0.953,0.118-1.041c1.397,0.059,2.885,0.088,4.104,0.088
	c1.012,0,1.873-0.029,2.497-0.088c0.298,1.338,2.231,3.598,4.907,6.779l2.498,2.945c1.309,1.547,2.171,2.586,2.854,3.27
	c0.119-0.297,0.119-0.801,0.119-1.336v-4.105c0-2.408-0.119-4.639-0.445-5.441c-0.269-0.625-0.922-0.832-1.726-0.953l-0.803-0.117
	c-0.238-0.238-0.179-0.863,0-1.041c1.606,0.059,2.766,0.088,3.985,0.088c1.101,0,2.171-0.029,3.331-0.088
	c0.178,0.178,0.237,0.803,0,1.041l-0.536,0.088c-0.773,0.121-1.338,0.357-1.605,0.982c-0.327,0.803-0.446,3.033-0.446,5.441V61.08z"
	/>
<path fill="#DCA959" d="M167.418,61.854c0,2.766,0.179,3.004,1.517,3.182l1.189,0.148c0.208,0.18,0.208,0.863,0,1.041
	c-1.933-0.059-3.39-0.088-4.818-0.088c-1.427,0-2.913,0.029-4.668,0.088c-0.238-0.178-0.238-0.861,0-1.041l1.011-0.148
	c1.339-0.207,1.517-0.416,1.517-3.182v-1.486c0-1.486-0.029-1.963-0.803-3.539l-3.539-7.316c-0.594-1.219-0.862-1.693-1.903-1.873
	l-1.011-0.178c-0.268-0.238-0.237-0.953,0.119-1.041c1.338,0.059,2.438,0.088,4.192,0.088c1.815,0,3.331-0.029,4.342-0.088
	c0.269,0.119,0.328,0.803,0.06,1.041l-1.011,0.238c-0.535,0.119-0.714,0.236-0.714,0.268c0,0.236,0.148,0.684,0.773,2.082
	l1.397,3.18c0.446,0.982,1.13,2.352,1.487,3.094c0.862-1.457,1.784-3.391,2.558-4.906c1.07-2.111,1.428-3.004,1.428-3.361
	c0-0.178-0.476-0.355-1.189-0.477l-0.566-0.117c-0.237-0.148-0.267-0.893,0.03-1.041c1.189,0.059,2.26,0.088,3.331,0.088
	c1.13,0,2.052-0.029,2.914-0.088c0.357,0.119,0.357,0.832,0.119,1.041l-0.773,0.148c-0.534,0.09-1.219,0.297-1.546,0.713
	c-0.446,0.566-1.16,1.637-2.587,4.223l-1.874,3.391c-0.773,1.398-0.981,2.143-0.981,3.836V61.854z"/>
<g>
	<path fill="#332524" d="M118.19,14.646c-2.559-6.006-6.605-10.362-13.064-12.149c-0.375-0.104-1.116-0.196-1.708-0.275
		c0.523,1.185,0.551,2.288,0.551,2.288c5.278,1.557,8.935,5.276,11.289,9.625c3.794,7.008,1.831,16.805-3.352,20.949
		c-3.573,3.336-7.569,4.516-12.29,5.396c-3.255,0.608-7.185,1.19-10.411,2.391c-3.593,0.789-6.856,3.084-9.638,6.262
		c-0.39-1.143-0.624-1.889-0.793-2.504c-0.119-0.447-0.297-0.596-0.684-0.596c-0.06,0-1.16,1.457-2.588,1.785
		c0.089,0.861-0.416,1.902-1.1,3.775l-2.706,7.256c-0.803,2.143-1.368,3.57-1.874,4.76c-0.505,1.158-1.1,1.396-1.814,1.486
		l-0.802,0.088c-0.208,0.238-0.238,0.863,0.089,1.041c1.367,0,2.052-0.088,3.063-0.088c1.249,0.029,2.319,0.029,3.36,0.088
		c0.297-0.148,0.238-0.832,0.06-1.041l-0.893-0.148c-0.723-0.127-1.109-0.281-1.197-0.434c0.792-1.678,2.769-5.742,5.625-9.766
		L78,56.977c0.238,0.773,0.833,2.498,0.981,2.973l0.803,2.559c0.356,1.102,0.565,1.814,0.565,2.023c0,0.178-0.119,0.387-0.803,0.504
		l-0.952,0.148c-0.327,0.238-0.267,0.863,0.06,1.041c1.368-0.059,2.528-0.088,4.015-0.088c1.547,0,3.152,0.029,4.58,0.088
		c0.268-0.178,0.208-0.893,0.029-1.041l-1.129-0.178c-1.102-0.178-1.368-0.863-1.993-2.646l-3.895-11.225
		c2.056-2.279,4.398-4.254,6.964-5.369c2.866-1.246,7.331-2.221,9.64-2.453c4.058-0.41,7.2-1.277,10.957-2.941
		C117.163,36.235,122.542,24.867,118.19,14.646z M73.985,56.947l0.744-2.23c0.446-1.369,1.041-2.975,1.278-3.658
		c0.161,0.377,0.419,1.109,0.69,1.91c-1.621,2.523-2.997,5.344-4.078,8.273l0.414-1.232C73.211,59.445,73.717,57.75,73.985,56.947z"
		/>
	<path fill="#332524" d="M79.735,30.228c0.568,0.091,1.357-0.135,1.543-0.5c0.244-0.482,0.284-1.614-0.234-2.041
		c-0.601-0.494-0.964-1.143-2.414-1.081c0.094-0.22,0.237-0.927,0.41-1.26c1.517-2.926,2.524-3.988,3.655-6.02
		c0.526-0.944,0.911-1.272,1.229-2.301c1.419-5.61,4.129-9.076,9.013-11.499c1.497-0.698,1.702-1.738,2.771-2.795
		c-0.47,0-0.884,0.021-1.227,0.144C88.778,5.24,85.13,7.984,83.273,15.124c-0.245,0.94-0.817,2.629-1.333,3.459
		c-1.738,2.797-3.089,5.156-3.991,8.528C77.534,28.659,78.163,29.978,79.735,30.228z"/>
	<path fill="#332524" d="M93.249,35.536c0.43-0.962,0.945-1.889,1.438-2.823c0.913-1.735,2.304-2.584,4.315-2.714
		c4.001-0.259,6.335-2.333,7.07-6.06c0.143-0.723,0.271-1.471,0.239-2.2c-0.067-1.454-0.253-2.903-0.388-4.354
		c-0.31,1.222-0.379,2.409-0.48,3.592c-0.393,4.61-2.396,6.713-6.934,7.171c-1.743,0.176-3.254,0.702-4.19,2.262
		c-0.525,0.872-0.923,1.817-1.373,2.733c-0.434,0.882-0.803,1.803-1.306,2.645c-0.583,0.977-1.5,1.491-2.665,1.385
		c-0.831-0.076-1.653-0.238-2.635-0.383C89.091,38.817,92.058,38.202,93.249,35.536z"/>
	<path fill="#332524" d="M94.762,6.219c0.955-0.934,1.805-1.585,2.88-2.364c1.969-1.424,3.074-1.248,3.786,0.995
		c0.124,0.4,0.286,1.298,0.391,2.912c0.024,0.397,0.036,2.091,0.036,2.68c1.514-1.755,2.121-5.397,1.39-7.497
		c-0.766-2.203-2.729-2.972-4.722-1.752c-2.599,1.591-3.946,4.193-5.383,6.709C93.223,7.957,94.29,6.68,94.762,6.219z"/>
	<path fill="#332524" d="M81.456,30.848c-0.649,2.363,0.494,4.368,2.522,4.716c1.959,0.335,3.781-0.009,5.373-1.267
		c0.854-0.676,1.751-1.308,2.531-2.062c0.275-0.265,0.377-0.616,0.377-1.26c-0.617-0.617-1.03-0.346-1.296-0.161
		c-0.674,0.468-1.281,1.088-1.775,1.75c-1.118,1.495-2.573,2.256-4.421,2.275c-1.7,0.017-2.863-0.979-3.14-2.663
		C81.554,31.736,81.512,31.29,81.456,30.848z"/>
	<path fill="#332524" d="M89.228,19.627c1.003,0.216,1.963-0.024,2.598-0.966c0.479-0.711,0.957-1.424,1.437-2.135
		c-0.63,0.17-1.384,0.41-1.757,0.925c-0.668,0.922-1.454,1.167-2.521,1.129c-1.275-0.044-1.837,0.495-2.193,2.062
		C87.449,19.502,88.234,19.413,89.228,19.627z"/>
	<circle fill="#332524" cx="82.709" cy="32.218" r="0.145"/>
	<circle fill="#332524" cx="83.368" cy="32.875" r="0.145"/>
	<circle fill="#332524" cx="83.336" cy="31.47" r="0.178"/>
	<circle fill="#332524" cx="84.047" cy="32.363" r="0.177"/>
	<circle fill="#332524" cx="84.498" cy="33.458" r="0.177"/>
	<circle fill="#332524" cx="85.545" cy="32.958" r="0.26"/>
	<circle fill="#332524" cx="84.857" cy="31.73" r="0.26"/>
	<circle fill="#332524" cx="84.047" cy="30.656" r="0.26"/>
	<circle fill="#332524" cx="85.697" cy="30.998" r="0.295"/>
	<circle fill="#332524" cx="86.513" cy="32.581" r="0.336"/>
	<circle fill="#332524" cx="87.616" cy="31.965" r="0.391"/>
	<circle fill="#332524" cx="83.715" cy="33.744" r="0.108"/>
</g>
</svg>
